<?xml version="1.0" encoding="utf-8"?>
<!-- Generator: Adobe Illustrator 27.5.0, SVG Export Plug-In . SVG Version: 6.00 Build 0)  -->
<svg version="1.1" id="Layer_1" xmlns="http://www.w3.org/2000/svg" xmlns:xlink="http://www.w3.org/1999/xlink" x="0px" y="0px"
	 viewBox="0 0 308.41 316.948" style="enable-background:new 0 0 308.41 316.948;" xml:space="preserve">
<g>
	<g>
		<g>
			<path style="fill:#231F20;" d="M85.297,312.193c-1.277,0-2.431-0.878-2.727-2.175c-0.346-1.508,0.596-3.01,2.104-3.356
				c6.697-1.534,10.769-2.4,12.996-2.853c2.298-57.844,17.505-118.758,17.66-119.375c0.378-1.499,1.907-2.409,3.399-2.031
				c1.5,0.378,2.41,1.9,2.032,3.4c-0.155,0.619-15.608,62.537-17.575,120.423c-0.045,1.32-1.008,2.43-2.308,2.662
				c-0.037,0.007-3.927,0.708-14.952,3.234C85.713,312.171,85.504,312.193,85.297,312.193z"/>
			<path style="fill:#231F20;" d="M226.775,312.193c-0.207,0-0.417-0.023-0.628-0.071c-11.025-2.527-14.915-3.228-14.954-3.234
				c-1.301-0.232-2.263-1.342-2.308-2.662c-1.966-57.886-17.418-119.804-17.574-120.423c-0.378-1.5,0.532-3.022,2.032-3.4
				c1.494-0.377,3.022,0.532,3.399,2.031c0.155,0.617,15.361,61.531,17.66,119.375c2.226,0.453,6.299,1.319,12.996,2.853
				c1.508,0.346,2.449,1.848,2.104,3.356C229.205,311.315,228.051,312.193,226.775,312.193z"/>
		</g>
	</g>
	<path style="fill:#231F20;" d="M39.959,188.586c-0.688,0-1.377-0.252-1.918-0.76c-1.127-1.06-1.183-2.832-0.122-3.959l5.401-5.747
		c-7.855-2.875-24.948-9.845-35.084-19.3c-2.639-2.461-3.871-5.614-3.563-9.117c1.186-13.498,25.398-29.57,28.155-31.358
		c1.297-0.842,3.031-0.471,3.873,0.825c0.842,1.298,0.473,3.032-0.824,3.874c-6.856,4.45-24.821,18.002-25.623,27.15
		c-0.158,1.795,0.416,3.234,1.803,4.529c12.269,11.444,36.868,19.423,37.115,19.503c0.914,0.293,1.616,1.035,1.855,1.965
		c0.241,0.93-0.012,1.919-0.671,2.619l-8.357,8.892C41.448,188.289,40.703,188.586,39.959,188.586z"/>
	<path style="fill:#231F20;" d="M273.491,186.406c-0.739,0.095-1.516-0.103-2.137-0.615l-9.426-7.75c-0.743-0.61-1.12-1.558-1-2.512
		c0.118-0.953,0.719-1.779,1.589-2.186c0.235-0.11,23.61-11.171,34.315-24.091c1.211-1.462,1.594-2.963,1.208-4.724
		c-1.969-8.982-21.518-20.115-28.885-23.647c-1.394-0.669-1.983-2.342-1.315-3.736c0.669-1.396,2.345-1.982,3.736-1.315
		c2.963,1.421,29.032,14.263,31.935,27.498c0.753,3.435-0.065,6.719-2.367,9.497c-8.843,10.673-24.904,19.773-32.326,23.63
		l6.092,5.009c1.196,0.982,1.367,2.747,0.385,3.942C274.825,185.98,274.173,186.318,273.491,186.406z"/>
	<g>
		<path style="opacity:0.5;fill:#D994C1;" d="M195.799,202.101c-0.221,0-0.552,0.564-0.348,0.564
			C195.676,202.664,196.002,202.101,195.799,202.101z"/>
		<path style="fill:#307B3B;" d="M276.907,85.918c-5.053-17.129-12.787-32.241-24.233-45.993
			c-11.795-14.164-27.815-23.983-44.705-30.885c-8.391-3.425-17.145-4.73-26.174-4.154c-10.088,0.65-19.606,3.718-29.645,4.708
			c-9.881,0.98-19.846-0.45-29.728-0.615c-9.096-0.153-17.68,1.438-26.212,4.494c-5.881,2.116-11.205,4.346-15.989,8.54
			c-2.551,2.234-4.651,4.488-6.583,7.267c-3.671,5.29-7.563,8.186-12.326,12.192c-3.649,3.073-6.6,6.868-8.074,11.435
			c-2.07,6.407,5.001,6.23,9.17,7.459C49.793,68.958,39.655,83.883,35.22,96.859c-8.285,24.199-6.54,50.66,3.753,73.95
			c10.141,22.955,28.987,39.659,52.408,48.19c11.485,4.185,25.069,5.661,37.23,4.549c9.083-0.832,18.74-0.846,26.919-5.051
			c-0.149,0.218-0.285,0.459-0.39,0.698c1.549-0.435,3.15-0.672,4.695-1.146c0.993-0.308,1.918-0.732,2.844-1.157
			c0.289-0.304,0.573-0.636,0.844-1c2.865-0.9,5.452-2.598,8.388-3.439c4.648-1.323,9.631-1.528,14.394-2.25
			c10.285-1.56,20.704-0.832,31.012-2.327c14.961-2.154,31.172-6.756,41.465-18.629c5.396-6.227,11.252-12.718,14.784-20.225
			c3.944-8.391,5.544-17.955,7.064-27.012C283.884,122.601,282.436,104.691,276.907,85.918z"/>
		<path style="fill:#9BC439;" d="M160.691,215.95c0.477-0.839,0.57-1.915-0.632-1.162c-0.485,0.297-0.933,0.646-1.378,1
			c-8.418,5.553-21.573,5.591-31.306,5.587c-10.319-0.008-20.068-0.629-30.102-3.276c-21.114-5.572-39.239-20.019-50.644-38.39
			c-11.537-18.557-16.344-40.937-14.19-62.601c2.039-20.621,13.078-44.907,31.734-56.294c0.111-0.045,0.224-0.108,0.334-0.186
			c3.345-2.013,6.928-3.608,10.756-4.692c0.111-0.036,0.25-0.15,0.399-0.299c3.9,0.517,9.593-1.451,8.353,4.72
			c-1.103,5.481-1.165,8.329,3.888,11.505c2.921,1.827,6.145,2.867,8.923,4.965c3.671,2.766,4.133,7.679,4.821,11.82
			c0.974,5.83,5.575,9.932,11.381,10.439c5.294,0.461,10.476-3.939,14.156-7.148c6.413-5.601,12.219-11.804,18.91-17.17
			c6.075-4.893,9.516-1.438,13.497,2.636c2.025,2.071,4.882,1.808,7.494,1.461c4.549-0.613,9.741-3.081,13.888-0.081
			c2.916,2.109,4.322,8.477,5.472,11.677c2.75,7.636,6.569,13.323,13.132,18.216c6.104,4.544,13.433,6.538,18.956,12.082
			c8.286,8.306,8.401,19.686,4.699,30.111c-3.693,10.373-11.122,16.69-21.1,20.621c-6.736,2.649-13.596,4.293-19.45,8.708
			c-5.301,4.008-9.6,9.504-12.751,15.315C166.656,201.57,166.253,211.813,160.691,215.95z"/>
		<path style="fill:#B3CE48;" d="M218.534,120.761c-5.523-5.544-12.852-7.538-18.956-12.082
			c-6.564-4.893-10.383-10.58-13.132-18.216c-1.151-3.2-2.556-9.568-5.472-11.677c-4.146-3.001-9.338-0.533-13.888,0.081
			c-2.612,0.347-5.468,0.61-7.494-1.461c-3.981-4.075-7.422-7.529-13.497-2.636c-6.691,5.366-12.497,11.569-18.91,17.17
			c-3.68,3.209-8.863,7.608-14.156,7.148c-5.806-0.507-10.407-4.609-11.381-10.439c-0.687-4.141-1.15-9.054-4.821-11.82
			c-2.778-2.098-6.002-3.138-8.923-4.965c-5.054-3.176-4.992-6.024-3.888-11.505c1.24-6.17-4.453-4.202-8.353-4.72
			c-0.149,0.15-0.289,0.263-0.399,0.299c-3.828,1.084-7.411,2.679-10.756,4.692c-0.11,0.077-0.224,0.141-0.334,0.186
			c-7.671,4.683-14.034,11.568-19.033,19.462c1.353-1.387,2.767-2.698,4.256-3.908c5.065-4.118,10.904-7.248,17.391-8.377
			c4.534-0.794,8.527,1.817,8.441,6.595c-0.092,5.624-2.856,11.02-5.305,15.956c-3.243,6.541-5.848,13.306-7.754,20.37
			c-4.977,18.455-5.319,37.581,0.776,55.823c0.213,0.612-0.7,1.188-1.126,0.651c-4.434-5.644-7.338-12.129-10.318-18.591
			c3.544,13.444,10.387,25.999,19.021,36.831c0.432,0.542-0.157,1.562-0.819,1.061c-0.048-0.038-0.086-0.076-0.132-0.112h-0.008
			c0-0.002-0.01-0.01-0.01-0.017c-3.943-3.045-7.431-6.546-10.598-10.326c8.107,11.941,17.726,22.714,29.077,31.959
			c0.521,0.424-0.042,1.32-0.658,1.119c-15.747-5.11-28.605-15.067-39.28-27.538c-0.174-0.203-0.358-0.414-0.527-0.627
			c11.448,17.682,29.144,31.527,49.706,36.955c10.033,2.647,19.783,3.267,30.102,3.276c9.733,0.004,22.888-0.034,31.306-5.587
			c0.445-0.354,0.894-0.703,1.378-1c1.201-0.753,1.109,0.323,0.632,1.162c5.563-4.137,5.966-14.38,9.241-20.433
			c3.15-5.811,7.45-11.307,12.751-15.315c5.854-4.415,12.714-6.06,19.45-8.708c9.979-3.931,17.407-10.248,21.1-20.621
			C226.935,140.447,226.82,129.067,218.534,120.761z M212.566,151.975c-1.664,5.704-4.838,12.024-10.628,14.432
			c-3.481,1.442-7.178,1.724-10.768,2.726c-3.833,1.059-7.25,2.937-10.12,5.689c-4.921,4.683-8.469,10.661-13.659,15.085
			c-5.552,4.737-12.381,7.567-19.73,5.924c-7.586-1.698-14.062-6.103-20.543-10.209c1.99,5.964,6.345,10.812,10.407,15.496
			c0.489,0.57-0.127,1.437-0.811,1.053c-19.731-10.773-34.843-28.863-39.801-50.698c-0.021,5.809,0.182,11.601,1.732,17.276
			c0.195,0.73-0.877,1.21-1.23,0.519c-5.034-9.624-8.668-19.82-9.614-30.562c-0.733,6.424-0.378,12.885,1.082,19.27
			c0.162,0.727-0.859,1.212-1.234,0.517c-10.841-19.933-13.847-42.684-10.973-64.911c-0.45-5.494,0.047-11.964,5.658-11.254
			c11.063,1.401,13.443,12.912,14.398,22.123c0.301,2.93,0.526,6.395,2.102,8.99c2.156,3.563,6.523,4.816,10.475,3.594
			c5.526-1.703,8.655-5.764,11.919-10.145c1.822-2.463,4.269-6.488,7.47-7.296c2.704-0.688,3.986,1.53,4.729,3.752
			c3.687-1.854,9.147-5.796,11.608-0.244c2.042,4.577,1.586,10.328,0.836,15.166c-1.345,8.681-4.881,17.465-8.569,25.413
			c-3.166,6.784-7.429,13.204-9.56,20.408c7.25-10.054,13.804-20.604,19.623-31.538c3.07-5.763,6.528-11.713,8.787-17.855
			c0.943-2.592,1.584-5.29,2.355-7.93c0.924-3.183,6.695-22.652,12.76-13.588c1.867,2.795,1.392,5.909,0.743,9.042
			c-0.217,1.043-1.52,8.523,0.177,8.182c2.7-0.552,5.328-1.399,8.024-1.937c1.125-0.236,2.585-0.076,3.2,1.055
			c2.619,4.797-2.091,10.934,2.33,14.846c2.81,2.478,5.947,4.348,7.564,7.861c1.118,2.417,0.862,5.507,0.18,8.011
			c-3.327,12.28-14.635,20.126-23.614,28.554c7.466-3.659,13.973-8.867,20.293-14.305c3.256-2.798,6.47-5.644,9.844-8.294
			c2.109-1.664,4.983-4.711,7.742-5.101C213.394,140.294,213.63,148.294,212.566,151.975z"/>
		<path style="fill:#9BC439;" d="M274.566,161.602c-3.416,11.562-11.919,23.158-21.214,30.885
			c-8.027,6.681-18.409,10.025-28.503,11.995c-18.72,3.642-38.931,0.78-56.972,7.789c-2.138,0.837-1.722,1.482-3.442,2.178
			c0.199-0.342,0.39-0.679,0.58-1.069c1.626-3.37,2.637-6.706,3.715-10.281c1.744-5.773,4.394-10.425,8.047-15.197
			c10.198-13.344,30.118-10.946,40.508-23.922c8.757-10.909,14.211-25.51,7.67-38.844c-3.413-6.981-10.017-10.886-16.558-14.47
			c-9.096-4.979-15.532-9.915-19.521-19.906c-1.444-3.63-3.753-15.494-9.21-15.875c-3.885-0.278-7.536,0.552-11.364,1.167
			c-6.015,0.975-7.037-2.738-11.003-5.684c-3.981-2.949-10.035,1.206-12.895,3.888c-3.322,3.116-6.952,5.931-10.31,9.033
			c-4.379,4.054-8.081,8.537-13.238,11.694c-5.307,3.246-10.425,2.178-14.946-1.618c-3.205-2.691-3.205-7.463-4.16-11.154
			c-1.892-7.267-8.57-8.927-14.018-12.821c-2.764-1.977-1.499-6.964-1.131-10.84c-0.326-1.638-0.956-3.089-1.998-4.185
			c-2.395-0.552-4.836-0.653-7.399-0.985c-0.925-0.119-2.407-0.266-2.704-1.394c-0.362-1.306-0.119-2.497,0.395-3.63
			c-1.61,1.655-2.899,3.396-2.466,4.905c0.199,0.706,0.546,1.206,1.018,1.571c-2.972,0.961-5.862,2.329-8.655,4.006
			c-2.516-1.588-5.492-2.011-8.128-3.75c-6.121-4.03,8.221-13.762,11.316-16.039c2.008-1.463,4.269-3.718,5.544-5.897
			c3.798-6.51,8.824-10.986,15.504-14.387c18.273-9.305,37.802-4.924,57.219-6.163c9.525-0.608,18.501-3.774,27.883-5.196
			c11.17-1.691,22.073-0.081,32.573,3.706c18.557,6.7,35.081,19.153,47.176,34.619C279.397,78.349,286.215,122.098,274.566,161.602z
			"/>
		<path style="fill:#B3CE48;" d="M253.88,45.732c-12.095-15.466-28.62-27.92-47.176-34.619c-10.5-3.786-21.403-5.397-32.573-3.706
			c-9.382,1.421-18.358,4.587-27.883,5.196c-19.417,1.239-38.946-3.142-57.219,6.163c-6.681,3.401-11.706,7.877-15.504,14.387
			c-1.274,2.179-3.536,4.434-5.544,5.897c-3.095,2.277-17.438,12.009-11.316,16.039c2.636,1.739,5.612,2.162,8.128,3.75
			c2.793-1.678,5.683-3.046,8.655-4.006c-0.472-0.364-0.819-0.864-1.018-1.571c-0.432-1.509,0.857-3.25,2.466-4.905
			c-0.514,1.133-0.756,2.324-0.395,3.63c0.296,1.127,1.778,1.275,2.704,1.394c2.563,0.332,5.004,0.433,7.399,0.985
			c1.042,1.097,1.672,2.547,1.998,4.185c-0.368,3.876-1.634,8.863,1.131,10.84c5.448,3.894,12.126,5.555,14.018,12.821
			c0.955,3.692,0.955,8.463,4.16,11.154c4.52,3.795,9.639,4.864,14.946,1.618c5.157-3.157,8.859-7.64,13.238-11.694
			c3.358-3.102,6.988-5.917,10.31-9.033c2.861-2.681,8.914-6.837,12.895-3.888c3.966,2.946,4.989,6.658,11.003,5.684
			c3.828-0.615,7.479-1.445,11.364-1.167c5.458,0.382,7.766,12.246,9.21,15.875c3.989,9.991,10.425,14.927,19.521,19.906
			c6.541,3.583,13.144,7.488,16.558,14.47c6.54,13.333,1.087,27.935-7.67,38.844c-10.389,12.976-30.31,10.578-40.508,23.922
			c-3.653,4.771-6.303,9.424-8.047,15.197c-1.078,3.575-2.089,6.911-3.715,10.281c-0.19,0.39-0.381,0.727-0.58,1.069
			c1.719-0.696,1.304-1.34,3.442-2.178c18.041-7.009,38.253-4.147,56.972-7.789c10.094-1.97,20.476-5.314,28.503-11.995
			c9.295-7.727,17.798-19.323,21.214-30.885C286.215,122.098,279.397,78.349,253.88,45.732z M259.932,97.388
			c-0.132,0.316-0.467,0.619-0.832,0.468c-4.813-1.884-7.955-6.354-12.616-8.48c-4.805-2.188-9.996-3.934-15.306-3.982
			c16.631,12.632,29.123,31.5,26.232,53.21c-1.48,11.178-6.613,21.987-15.234,29.372c-6.232,5.331-15.711,12.527-24.497,10.697
			c-0.347-0.076-0.571-0.493-0.466-0.832c1.964-6.493,8.807-9.979,13.846-13.842c2.924-2.252,6.417-5.057,7.351-8.824
			c0.761-3.073-0.203-4.897-2.223-7.164c-0.959-1.079-1.702-2.097-2.144-3.482c-0.522-1.681,0.589-3.79,1.297-5.254
			c1.34-2.774,2.222-5.902,1.87-9.018c-0.649-5.723-4.181-9.743-8.379-13.376c-1.456-1.267-3.841-2.538-5.691-4.066
			c-2.336-1.086-4.356-2.65-4.526-5.063c-0.115-1.585,0.709-2.731,1.419-4.082c1.158-2.196,2.223-5.151,1.319-7.643
			c-2.767-7.592-14.925-6.364-20.077-11.745c-2.475-2.57-3.705-5.404-1.569-8.575c2.074-3.082,5.839-4.797,7.627-8.079
			c-4.112,0.328-8.066,2.731-12.212,1.61c-0.53-0.134-0.603-0.742-0.294-1.119c7.459-9.162,18.948-13.011,28.797-18.949
			c-8.154-0.723-17.068,1.72-24.352,5.136c-6.29,2.954-11.97,7.177-18.414,9.814c-4.053,1.664-8.557,2.958-11.68-0.866
			c-1.506-1.834-3.008-5.374-5.638-5.797c-2.965-0.476-5.911,2.126-8.801,2.69c-0.422,0.084-0.846-0.185-0.854-0.646
			c-0.042-4.687,2.361-8.585,4.783-12.419c-8.55,6.081-15.839,13.803-21.632,22.544c-3.675,5.558-8.54,14.562-15.81,15.758
			c-4.746,0.784-8.158-2.554-6.974-7.131c1.015-3.886,6.363-11.909-0.275-13.05c-0.464-0.079-0.566-0.632-0.4-0.99
			c5.281-11.383,16.181-19.119,26.988-25.204c-8.864,2.437-17.912,7.284-24.22,13.567c-3.33,3.319-6.113,7.054-9.071,10.7
			c-2.237,2.762-4.576,6.514-8.342,7.177c-6.153,1.086-8.017-7.555-7.07-11.869c0.84-3.862,2.681-6.806-1.956-8.939
			c-3.449-1.585-7.651-2.521-11.441-2.267c-0.432,0.031-0.771-0.448-0.644-0.854c0.767-2.538,2.537-4.255,4.396-5.976
			c-2.665,0.498-5.034,1.695-7.457,3.032c-0.556,0.309-1.321-0.333-0.918-0.918c8.26-12.058,22.455-19.758,36.625-22.47
			c7.655-1.463,15.122-1.308,22.813-0.132c5.018,0.763,10.196,1.784,15.282,1.299c4.601-0.442,8.934-1.765,13.347-3.032
			c17.265-4.936,33.416,0.189,49.154,7.277c13.449,3.931,25.32,12.84,34.052,23.804c5.404,6.789,10.029,14.346,13.073,22.498
			C261.175,79.944,263.226,89.129,259.932,97.388z"/>
		<path style="fill:#C6EF84;" d="M253.984,191.502c-7.287,4.176-15.208,7.428-23.272,9.748c-7.259,2.093-16.123,3.881-22.618-1.096
			c-0.359-0.271-0.508-0.918,0-1.165c17.915-8.545,44.881-19.882,52.812-39.712c-0.491,0.753-1.001,1.494-1.53,2.238
			c-10.307,14.272-25.015,23.553-41.598,28.982c-7.967,2.611-16.159,4.324-24.135,6.923c-4.505,1.463-12.148,4.541-16.58,1.289
			c-6.15-4.506,1.622-12.486,5.604-16.35c-2.173,1.502-4.172,3.297-5.889,5.543c-3.653,4.771-6.303,9.424-8.047,15.197
			c-1.078,3.575-2.089,6.911-3.715,10.281c-0.19,0.39-0.381,0.727-0.58,1.069c1.719-0.696,1.304-1.34,3.442-2.178
			c18.041-7.009,38.253-4.147,56.972-7.789c10.094-1.97,20.476-5.314,28.503-11.995c0.747-0.62,1.482-1.273,2.224-1.944
			C255.046,190.866,254.524,191.191,253.984,191.502z"/>
		<path style="fill:#C6EF84;" d="M161.958,200.557c-2,1.114-3.979,1.963-6.309,2.128c-5.959,0.43-11.001-2.305-15.912-5.276
			c2.932,3.924,6.521,7.26,10.247,10.443c0.442,0.371,0.102,1.188-0.471,1.146c-23.97-1.722-44.119-18.897-58.047-37.266
			c-7.371-9.714-13.817-20.588-17.817-32.153c-4.191-12.118-4.17-24.837-5.956-37.393c-10.294,22.762-6.575,51.963,3.375,74.134
			c5.615,12.497,13.285,24.215,22.929,33.982c3.362,3.41,6.914,6.546,10.701,9.415c7.478,1.299,14.923,1.652,22.678,1.66
			c9.733,0.004,22.888-0.034,31.306-5.587c0.445-0.354,0.894-0.703,1.378-1c1.201-0.753,1.109,0.323,0.632,1.162
			c4.946-3.68,5.82-12.18,8.252-18.276C166.699,197.24,163.637,199.617,161.958,200.557z"/>
		<path style="fill:#C6EF84;" d="M161.958,200.557c-2,1.114-3.979,1.963-6.309,2.128c-5.959,0.43-11.001-2.305-15.912-5.276
			c2.932,3.924,6.521,7.26,10.247,10.443c0.442,0.371,0.102,1.188-0.471,1.146c-23.97-1.722-44.119-18.897-58.047-37.266
			c-7.371-9.714-13.817-20.588-17.817-32.153c-3.732-10.769-4.123-22.009-5.422-33.2c-0.344,3.939-0.324,7.87-0.183,11.488
			c0.459,11.959,2.755,23.986,6.966,35.204c4.86,12.952,11.936,24.916,21.088,35.3c8.654,9.827,19.596,15.551,30.514,22.406
			c0.581,0.361,0.335,1.22-0.336,1.257c-16.337,0.785-32.557-6.43-45.039-17.398c3.768,5.601,8.017,10.869,12.759,15.666
			c3.362,3.41,6.914,6.546,10.701,9.415c7.478,1.299,14.923,1.652,22.678,1.66c9.733,0.004,22.888-0.034,31.306-5.587
			c0.445-0.354,0.894-0.703,1.378-1c1.201-0.753,1.109,0.323,0.632,1.162c4.946-3.68,5.82-12.18,8.252-18.276
			C166.699,197.24,163.637,199.617,161.958,200.557z"/>
		<path style="fill:#C6EF84;" d="M253.88,45.732c-12.095-15.466-28.62-27.92-47.176-34.619c-7.963-2.868-16.148-4.486-24.51-4.365
			c7.777,0.586,15.701,3.338,22.392,6.079c13.519,5.553,25.446,13.404,35.481,24.098c10.706,11.395,19.716,24.718,25.234,39.403
			c2.696,7.167,4.681,14.712,6.307,22.193c1.456,6.708,2.48,13.725,0.446,20.421c-0.157,0.495-0.755,0.641-1.129,0.301
			c-5.828-5.336-9.607-12.574-15.827-17.513c-4.611-3.656-9.173-7.581-14.407-10.216c4.92,3.178,9.411,6.66,13.493,11.242
			c4.733,5.314,8.964,11.247,11.575,17.903c5.56,14.217,2.407,28.675-6.383,40.857c-10.307,14.272-25.015,23.553-41.598,28.982
			c-7.967,2.611-16.159,4.324-24.135,6.923c-4.505,1.463-12.148,4.541-16.58,1.289c-6.15-4.506,1.622-12.486,5.604-16.35
			c-2.173,1.502-4.172,3.297-5.889,5.543c-3.653,4.771-6.303,9.424-8.047,15.197c-1.078,3.575-2.089,6.911-3.715,10.281
			c-0.19,0.39-0.381,0.727-0.58,1.069c1.719-0.696,1.304-1.34,3.442-2.178c18.041-7.009,38.253-4.147,56.972-7.789
			c10.094-1.97,20.476-5.314,28.503-11.995c9.295-7.727,17.798-19.323,21.214-30.885C286.215,122.098,279.397,78.349,253.88,45.732z
			"/>
		<g>
			<path style="fill:#C6EF84;" d="M53.578,81.149c0.784-1.375-0.411-1.435-1.2-0.5c-4.908,5.823-9.289,11.604-11.881,18.831
				c-2.929,8.169-4.113,17.393-4.521,26.024c-0.828,17.168,4.347,38.165,13.888,52.458c0.616,0.923,2.225-1.129,1.979-1.897
				c-4.788-14.984-9.313-31.62-9.346-47.436c-0.014-9.193,0.614-17.613,2.253-26.706C46.125,94.358,49.809,87.754,53.578,81.149z"/>
			<path style="fill:#C6EF84;" d="M176.016,21.05c-6.55-2.059-12.984-1.729-19.404,0.907c-5.214,2.145-9.558,3.439-15.302,3.116
				c-4.533-0.254-8.786-2.229-13.297-2.306c-15.785-0.249-31.321-1.442-40.981,13.337c-0.382,0.456-0.694,0.927-0.732,1.124
				c-0.016,0.12-0.046,0.244-0.066,0.363c-0.246,1.375,1.055,0.823,1.667,0.272c12.733-11.527,29.262-9.456,44.901-6.723
				c6.2,1.083,13.825-0.552,19.18-3.721c7.835-4.651,14.369-8.401,23.544-5.563C175.814,21.945,176.354,21.161,176.016,21.05z"/>
			<path style="fill:#C6EF84;" d="M154.774,43.805c-6.391,3.609-11.838,7.988-16.86,13.342
				c-5.263,5.587-10.597,10.606-13.541,17.859c-0.538,1.339,0.297,2.306,1.555,1.246c4.626-3.881,7.819-9.307,11.956-13.711
				c5.519-5.878,11.317-11.455,16.889-17.293C155.055,44.962,155.841,43.207,154.774,43.805z"/>
			<path style="fill:#C6EF84;" d="M139.308,108.537c-0.566-0.739-1.995,1.382-1.965,1.901c0.339,5.213-2.82,11.309-3.85,16.401
				c-1.384,6.791-3.97,13.251-6.118,19.813c-0.565,1.755,1.829,0.101,2.183-0.483c3.951-6.682,6.537-13.839,8.145-21.411
				C138.535,120.845,142.096,112.167,139.308,108.537z"/>
			<path style="fill:#C6EF84;" d="M81.339,108.553c-0.36-4.738,0.161-9.509-0.475-14.222c-0.127-0.908-1.426,0.519-1.432,1.047
				c-0.016,5.101-1.018,10.061-0.865,15.188c0.153,4.971,1.155,10.161,2.586,14.897c0.283,0.956,2.147-1.045,2.058-1.744
				C82.609,118.654,81.732,113.644,81.339,108.553z"/>
			<path style="fill:#C6EF84;" d="M225.138,36.607c-0.513-0.237-1.515,0.945-1.083,1.341c6.461,5.873,11.678,13.309,16.666,20.458
				c3.785,5.426,4.966,12.345,9.073,17.575c0.681,0.873,2.329-1.629,2.293-2.226C251.407,58.105,238.797,43.075,225.138,36.607z"/>
		</g>
	</g>
	<g>
		<g>
			<g>
				<g>
					<g>
						<g>
							<g>
								<g>
									<g>
										<g>
											<path style="fill:#FFFFFF;" d="M137.639,100.214c0.11,11.156-8.844,20.289-20,20.399
												c-11.156,0.11-20.289-8.845-20.399-20.001c-0.11-11.156,8.844-20.289,20-20.399
												C128.396,80.103,137.529,89.058,137.639,100.214z"/>
										</g>
										<g>
											<path style="fill:#62493E;" d="M132.525,100.264c0.082,8.332-6.606,15.152-14.937,15.235
												c-8.331,0.082-15.152-6.606-15.234-14.937c-0.082-8.332,6.605-15.152,14.937-15.234
												C125.622,85.245,132.443,91.933,132.525,100.264z"/>
											<g>
												<path style="fill:#312017;" d="M129.943,100.259c0.068,6.906-5.475,12.56-12.382,12.628
													c-6.906,0.068-12.56-5.475-12.628-12.382c-0.068-6.906,5.476-12.56,12.381-12.628
													C124.221,87.809,129.875,93.352,129.943,100.259z"/>
												<path style="fill:#FFFFFF;" d="M115.018,94.305c0.012,1.271-1.008,2.312-2.28,2.325
													c-1.271,0.013-2.312-1.008-2.325-2.279c-0.012-1.271,1.008-2.312,2.279-2.325
													C113.965,92.013,115.005,93.033,115.018,94.305z"/>
												<path style="fill:#FFFFFF;" d="M110.029,99.954c0.008,0.8-0.635,1.455-1.434,1.463c-0.8,0.008-1.455-0.634-1.463-1.434
													c-0.008-0.8,0.634-1.455,1.434-1.463C109.366,98.512,110.021,99.154,110.029,99.954z"/>
											</g>
										</g>
									</g>
								</g>
								<g>
									<g>
										<g>
											<path style="fill:#FFFFFF;" d="M217.634,99.425c0.11,11.156-8.845,20.289-20.001,20.399
												c-11.156,0.11-20.289-8.844-20.399-20.001c-0.111-11.156,8.844-20.289,20-20.399
												C208.391,79.314,217.525,88.269,217.634,99.425z"/>
										</g>
										<g>
											<path style="fill:#62493E;" d="M212.52,99.475c0.082,8.332-6.605,15.153-14.937,15.234
												c-8.331,0.082-15.152-6.605-15.234-14.937c-0.082-8.332,6.605-15.152,14.936-15.234
												C205.617,84.456,212.438,91.144,212.52,99.475z"/>
											<g>
												<path style="fill:#312017;" d="M209.939,99.47c0.068,6.906-5.475,12.56-12.381,12.628
													c-6.906,0.068-12.56-5.475-12.628-12.381c-0.068-6.906,5.475-12.56,12.382-12.628
													C204.217,87.02,209.871,92.564,209.939,99.47z"/>
												<path style="fill:#FFFFFF;" d="M195.013,93.516c0.012,1.271-1.008,2.313-2.279,2.325
													c-1.272,0.013-2.313-1.008-2.325-2.279c-0.013-1.271,1.008-2.312,2.279-2.325
													C193.96,91.224,195.001,92.245,195.013,93.516z"/>
												<path style="fill:#FFFFFF;" d="M190.025,99.165c0.008,0.8-0.634,1.455-1.435,1.463c-0.8,0.008-1.455-0.635-1.463-1.434
													c-0.008-0.8,0.634-1.455,1.434-1.463C189.362,97.723,190.017,98.365,190.025,99.165z"/>
											</g>
										</g>
									</g>
								</g>
							</g>
							<g>
								<g>
									<path style="fill:#231F20;" d="M126.936,74.648c-0.763,0-1.533-0.224-2.209-0.692c-9.329-6.461-17.277-0.23-17.356-0.167
										c-1.675,1.345-4.122,1.08-5.464-0.591c-1.346-1.673-1.082-4.119,0.591-5.464c4.303-3.464,15.412-7.955,26.656-0.167
										c1.765,1.221,2.204,3.642,0.982,5.407C129.38,74.063,128.168,74.648,126.936,74.648z"/>
								</g>
								<g>
									<path style="fill:#231F20;" d="M206.014,74.648c-0.764,0-1.536-0.224-2.211-0.692c-9.203-6.375-17.049-0.405-17.379-0.148
										c-1.683,1.312-4.121,1.031-5.449-0.643c-1.324-1.673-1.064-4.094,0.599-5.433c4.305-3.462,15.413-7.952,26.658-0.165
										c1.764,1.221,2.204,3.642,0.982,5.407C208.458,74.063,207.246,74.648,206.014,74.648z"/>
								</g>
							</g>
						</g>
					</g>
				</g>
				<g>
					<path style="fill:#EB8693;" d="M129.057,128.707c0,0,31.501,4.661,53.101-3.392c0,0,7.085,43.132-20.266,45.87
						C141.743,173.201,129.942,162.129,129.057,128.707z"/>
					<path style="fill:#EF5151;" d="M169.949,165.114c-5.787-2.213-12.279-2.543-18.345-1.445c-3.283,0.595-6.551,1.636-9.539,3.179
						c5.199,3.872,11.857,5.133,19.827,4.335c4.685-0.469,8.359-2.124,11.233-4.544
						C172.101,166.063,171.049,165.535,169.949,165.114z"/>
					<path style="fill:#FFFFFF;" d="M139.422,137.384c2.64,2.132,6.157,3.064,9.457,3.525c3.921,0.548,7.94,0.381,11.844-0.223
						c4.364-0.675,9.303-1.956,11.392-6.251c1.002-2.061,1.363-4.338,1.486-6.648c-13.62,2.978-28.807,2.402-37.465,1.682
						C135.961,132.479,136.88,135.331,139.422,137.384z"/>
				</g>
			</g>
		</g>
	</g>
</g>
</svg>
